<svg width="72" height="70" viewBox="0 0 72 70" fill="none" xmlns="http://www.w3.org/2000/svg">
<path d="M48.9826 47.5734C55.0533 47.5734 60.0426 52.5627 60.0426 58.6334V69.5574H51.5453H16.2078H7.71033V58.6334C7.71033 52.5627 12.7005 47.5734 18.7702 47.5734C18.7702 47.5734 47.9039 47.5734 48.9826 47.5734Z" fill="#65B2FE"/>
<path d="M4.47348 22.2146C6.33548 22.2146 7.84534 23.7253 7.84534 25.5866C7.84534 27.4493 6.33548 28.96 4.47348 28.96C2.61041 28.96 1.10107 27.4493 1.10107 25.5866C1.10107 23.7253 2.61041 22.2146 4.47348 22.2146Z" fill="#505967"/>
<path d="M62.6053 8.72803C64.9146 8.72803 66.7866 10.5987 66.7866 12.9094C66.7866 15.2174 64.9146 17.0894 62.6053 17.0894C60.2959 17.0894 58.424 15.2174 58.424 12.9094C58.424 10.5987 60.2959 8.72803 62.6053 8.72803Z" fill="#505967"/>
<path d="M65.9773 39.0761C67.3933 39.0761 68.54 40.2227 68.54 41.6387C68.54 43.0534 67.3933 44.2001 65.9773 44.2001C64.5627 44.2001 63.416 43.0534 63.416 41.6387C63.416 40.2227 64.5627 39.0761 65.9773 39.0761Z" fill="#505967"/>
<path d="M24.2999 21.4067C24.2999 21.4067 29.9645 29.4987 43.1826 27.3413V31.3867C43.1826 36.6467 39.0021 40.828 33.7417 40.828C28.4817 40.828 24.2999 36.6467 24.2999 31.3867V21.4067Z" fill="#F1B181"/>
<path d="M43.1826 21.4067V27.3413C29.9645 29.4987 24.2999 21.4067 24.2999 21.4067H43.1826Z" fill="#73665C"/>
<path d="M70.1586 23.8333C71.1279 23.8333 71.9119 24.6186 71.9119 25.5866C71.9119 26.556 71.1279 27.3413 70.1586 27.3413C69.1906 27.3413 68.4053 26.556 68.4053 25.5866C68.4053 24.6186 69.1906 23.8333 70.1586 23.8333Z" fill="#EA7E23"/>
<path d="M66.7865 54.1813C67.7545 54.1813 68.5399 54.9667 68.5399 55.9347C68.5399 56.904 67.7545 57.6893 66.7865 57.6893C65.8185 57.6893 65.0332 56.904 65.0332 55.9347C65.0332 54.9667 65.8185 54.1813 66.7865 54.1813Z" fill="#EA7E23"/>
<path d="M65.168 0.230648C66.1374 0.230648 66.9214 1.01598 66.9214 1.98265C66.9214 2.95198 66.1374 3.7373 65.168 3.7373C64.2 3.7373 63.416 2.95198 63.416 1.98265C63.416 1.01598 64.2 0.230648 65.168 0.230648Z" fill="#EA7E23"/>
<path d="M60.0426 28.96C61.012 28.96 61.796 29.7453 61.796 30.712C61.796 31.6813 61.012 32.4667 60.0426 32.4667C59.0746 32.4667 58.2893 31.6813 58.2893 30.712C58.2893 29.7453 59.0746 28.96 60.0426 28.96Z" fill="#EA7E23"/>
<path d="M31.4484 0.230648C32.4172 0.230648 33.2026 1.01598 33.2026 1.98265C33.2026 2.95198 32.4172 3.7373 31.4484 3.7373C30.4806 3.7373 29.6953 2.95198 29.6953 1.98265C29.6953 1.01598 30.4806 0.230648 31.4484 0.230648Z" fill="#EA7E23"/>
<path d="M11.2167 0.230648C12.1855 0.230648 12.9708 1.01598 12.9708 1.98265C12.9708 2.95198 12.1855 3.7373 11.2167 3.7373C10.2484 3.7373 9.46362 2.95198 9.46362 1.98265C9.46362 1.01598 10.2484 0.230648 11.2167 0.230648Z" fill="#EA7E23"/>
<path d="M9.46353 10.3466C10.4322 10.3466 11.2166 11.132 11.2166 12.0986C11.2166 13.0679 10.4322 13.8533 9.46353 13.8533C8.49526 13.8533 7.71033 13.0679 7.71033 12.0986C7.71033 11.132 8.49526 10.3466 9.46353 10.3466Z" fill="#EA7E23"/>
<path d="M2.71927 40.6947C3.68794 40.6947 4.4734 41.4787 4.4734 42.4467C4.4734 43.4161 3.68794 44.2001 2.71927 44.2001C1.75154 44.2001 0.966064 43.4161 0.966064 42.4467C0.966064 41.4787 1.75154 40.6947 2.71927 40.6947Z" fill="#EA7E23"/>
<path d="M55.4572 42.4468H45.3412C44.3972 42.4468 43.5879 41.6388 43.5879 40.6948C43.5879 39.7508 44.3972 38.9401 45.3412 38.9401H50.7359C43.8572 32.0614 41.6999 22.0814 41.5639 21.5414C41.4292 20.5961 41.9692 19.7881 42.9132 19.5188C43.8572 19.3828 44.6666 19.9214 44.9372 20.8668C44.9372 21.0014 47.7692 33.6801 56.5359 39.2094C57.2106 39.6148 57.4799 40.4241 57.2106 41.0988C56.8052 42.0428 56.2666 42.4468 55.4572 42.4468Z" fill="#B53532"/>
<path d="M22.1417 42.4468H12.026C11.2166 42.4468 10.6776 41.9081 10.4078 41.2334C10.138 40.5588 10.5426 39.7508 11.0817 39.3454C19.7139 33.8148 22.5469 21.1374 22.6817 21.0014C22.8161 20.0574 23.7604 19.5188 24.7052 19.6521C25.6489 19.7881 26.189 20.7321 26.053 21.6761C25.9188 22.2148 23.7604 32.1961 16.8822 39.0761H22.277C23.2213 39.0761 24.0306 39.8841 24.0306 40.8281C23.7603 41.7734 23.0859 42.4468 22.1417 42.4468Z" fill="#B53532"/>
<path d="M33.8759 64.432C32.9321 64.432 32.1228 63.624 32.1228 62.68V57.5533C32.1228 56.6093 32.9321 55.8 33.8759 55.8C34.8207 55.8 35.6301 56.6093 35.6301 57.5533V62.68C35.6301 63.624 34.8207 64.432 33.8759 64.432Z" fill="#469BE0"/>
<path d="M17.826 69.4227V60.1161C17.826 59.1721 17.0172 58.3627 16.0729 58.3627C15.1281 58.3627 14.3193 59.1721 14.3193 60.1161V69.4227H17.826Z" fill="#469BE0"/>
<path d="M53.2987 69.4227V60.1161C53.2987 59.1721 52.4893 58.3627 51.5453 58.3627C50.6013 58.3627 49.792 59.1721 49.792 60.1161V69.4227H53.2987Z" fill="#469BE0"/>
<path d="M41.5639 47.5733V50.136C41.5639 54.316 38.1925 57.6893 34.0119 57.6893C29.8301 57.6893 26.4583 54.316 26.4583 50.136V47.5733H41.5639Z" fill="#F1B181"/>
<path d="M48.3079 8.18802L45.3412 21.676C41.8345 21.676 25.2441 21.676 22.6816 21.676L19.7139 8.18802H48.3079Z" fill="#E42E44"/>
<path d="M35.6302 13.3134C35.6302 12.3694 34.8207 11.56 33.8759 11.56C32.9322 11.56 32.1228 12.3694 32.1228 13.3134C31.1791 13.3134 30.3696 14.1227 30.3696 15.0667C30.3696 16.0107 31.1791 16.82 32.1228 16.82C32.1228 17.764 32.9322 18.5747 33.8759 18.5747C34.8207 18.5747 35.6302 17.764 35.6302 16.82C36.5744 16.82 37.3832 16.0107 37.3832 15.0667C37.2483 14.1227 36.5744 13.3134 35.6302 13.3134Z" fill="white"/>
</svg>
