<svg width="79" height="80" viewBox="0 0 79 80" fill="none" xmlns="http://www.w3.org/2000/svg">
<path d="M64.6907 14.9653V75.3907C64.6907 77.8187 62.6667 79.8414 60.24 79.8414H20.1801C17.7521 79.8414 15.7294 77.8187 15.7294 75.3907V14.9653C15.7294 12.5373 17.7521 10.5147 20.1801 10.5147C20.1801 10.5147 60.24 10.5147 60.3747 10.5147C62.6667 10.5147 64.6907 12.5373 64.6907 14.9653Z" fill="#E2F1FC"/>
<path d="M49.4495 64.4667H57.9468C55.1148 67.2987 52.2815 70.1307 49.4495 72.9641V64.4667Z" fill="#C4DAE8"/>
<path d="M5.61346 52.732C7.47613 52.732 8.98543 54.2414 8.98543 56.104C8.98543 57.9667 7.47613 59.4747 5.61346 59.4747C3.75079 59.4747 2.24146 57.9667 2.24146 56.104C2.24146 54.2414 3.75079 52.732 5.61346 52.732Z" fill="#505967"/>
<path d="M72.2441 67.8374C73.6587 67.8374 74.8054 68.9854 74.8054 70.4001C74.8054 71.8161 73.6587 72.9641 72.2441 72.9641C70.8281 72.9641 69.6814 71.8161 69.6814 70.4001C69.6814 68.9854 70.8281 67.8374 72.2441 67.8374Z" fill="#505967"/>
<path d="M73.8614 22.384C76.172 22.384 78.0427 24.256 78.0427 26.5653C78.0427 28.8747 76.172 30.7467 73.8614 30.7467C71.5534 30.7467 69.6814 28.8747 69.6814 26.5653C69.6814 24.256 71.5534 22.384 73.8614 22.384Z" fill="#505967"/>
<path d="M54.5748 10.5147V12.2681C54.5748 14.0214 53.0908 15.5054 51.3374 15.5054H29.0828C27.3295 15.5054 25.8455 14.0214 25.8455 12.2681V10.5147V8.76142C25.8455 7.00809 27.3295 5.52412 29.0828 5.52412H35.9614V4.71474C35.9614 2.42141 37.8495 0.533428 40.1428 0.533428C42.4361 0.533428 44.3241 2.42141 44.3241 4.71474V5.52412H51.2028C52.9561 5.52412 54.4401 7.00809 54.4401 8.76142V10.5147H54.5748Z" fill="#505967"/>
<path d="M77.6388 41.4013C77.9095 41.6706 78.1788 42.076 78.1788 42.616C78.1788 43.1547 78.0428 43.56 77.6388 43.8293C77.2348 44.1 76.9654 44.3693 76.4241 44.3693C75.4801 44.3693 74.6721 43.56 74.6721 42.616C74.6721 42.2107 74.8055 41.6706 75.2108 41.4013C75.6161 41.132 75.8854 40.8613 76.4241 40.8613C76.9654 40.8613 77.3681 41.132 77.6388 41.4013Z" fill="#607D8B"/>
<path d="M72.5134 9.30134C72.7827 9.57067 73.0534 9.97468 73.0534 10.5147C73.0534 10.9187 72.9174 11.4587 72.5134 11.728C72.1094 11.9987 71.8387 12.268 71.3001 12.268C70.3561 12.268 69.5454 11.4587 69.5454 10.5147C69.5454 10.1107 69.6814 9.57067 70.0854 9.30134C70.4894 9.03067 70.7601 8.76136 71.3001 8.76136C71.8387 8.76136 72.2441 9.03067 72.5134 9.30134Z" fill="#607D8B"/>
<path d="M70.8948 53.136C71.1641 53.4067 71.4348 53.8107 71.4348 54.3507C71.4348 54.8894 71.3001 55.2947 70.8948 55.564C70.4894 55.8334 70.2201 56.104 69.6814 56.104C68.7374 56.104 67.9268 55.2947 67.9268 54.3507C67.9268 53.9454 68.0628 53.4067 68.4681 53.136C68.7374 52.8667 69.1414 52.596 69.6814 52.596C70.2201 52.596 70.6254 52.8667 70.8948 53.136Z" fill="#607D8B"/>
<path d="M59.0267 27.9147C59.2961 28.1841 59.5654 28.5881 59.5654 29.1281C59.5654 29.6668 59.4294 30.0721 59.0267 30.3414C58.6214 30.6108 58.3521 30.8814 57.8107 30.8814C56.8667 30.8814 56.0587 30.0721 56.0587 29.1281C56.0587 28.7228 56.1934 28.1841 56.5974 27.9147C56.8667 27.6441 57.2721 27.3748 57.8107 27.3748C58.3521 27.3748 58.7547 27.6441 59.0267 27.9147Z" fill="#C4DAE8"/>
<path d="M10.2001 11.0547C10.4694 11.324 10.7387 11.728 10.7387 12.268C10.7387 12.672 10.6041 13.212 10.2001 13.4813C9.79472 13.7507 9.52538 14.0214 8.98538 14.0214C8.04138 14.0214 7.23206 13.212 7.23206 12.268C7.23206 11.8626 7.36673 11.324 7.77206 11.0547C8.17606 10.784 8.44538 10.5147 8.98538 10.5147C9.52538 10.5147 9.92939 10.784 10.2001 11.0547Z" fill="#607D8B"/>
<path d="M10.2001 38.0293C10.4694 38.3 10.7387 38.7041 10.7387 39.2441C10.7387 39.7827 10.6041 40.1881 10.2001 40.4574C9.79472 40.7267 9.52538 40.9974 8.98538 40.9974C8.04138 40.9974 7.23206 40.1881 7.23206 39.2441C7.23206 38.8387 7.36673 38.3 7.77206 38.0293C8.0414 37.76 8.44538 37.4907 8.98538 37.4907C9.52538 37.4907 9.92939 37.76 10.2001 38.0293Z" fill="#607D8B"/>
<path d="M10.2001 68.3774C10.4694 68.6467 10.7387 69.052 10.7387 69.5907C10.7387 70.1307 10.6041 70.5347 10.2001 70.8054C9.79472 71.0747 9.52538 71.3453 8.98538 71.3453C8.04138 71.3453 7.23206 70.536 7.23206 69.5907C7.23206 69.1867 7.36673 68.6467 7.77206 68.3774C8.17606 68.108 8.44538 67.8373 8.98538 67.8373C9.52538 67.8373 9.92939 68.108 10.2001 68.3774Z" fill="#607D8B"/>
<path d="M3.45604 22.7881C3.72537 23.0574 3.99604 23.4627 3.99604 24.0027C3.99604 24.5414 3.86004 24.9467 3.45604 25.2161C3.18537 25.4867 2.78139 25.756 2.24139 25.756C1.29739 25.756 0.488037 24.9467 0.488037 24.0027C0.488037 23.5974 0.62271 23.0574 1.02804 22.7881C1.29738 22.5187 1.70272 22.2494 2.24139 22.2494C2.78139 22.2494 3.18537 22.5187 3.45604 22.7881Z" fill="#607D8B"/>
<path d="M49.4493 74.5827H22.4733C21.5293 74.5827 20.72 73.7733 20.72 72.828V22.384C20.72 21.44 21.5293 20.6307 22.4733 20.6307C23.4173 20.6307 24.2266 21.44 24.2266 22.384V71.3453H48.7747L56.1933 63.9266V34.2533C56.1933 33.3093 57.0027 32.5 57.9467 32.5C58.8907 32.5 59.7 33.3093 59.7 34.2533V64.6013C59.7 65.0053 59.5653 65.4107 59.16 65.8147L50.6626 74.312C50.2586 74.4467 49.8547 74.5827 49.4493 74.5827Z" fill="#C4DAE8"/>
<path d="M51.2028 54.3507H29.2174C28.2734 54.3507 27.4641 53.5414 27.4641 52.596C27.4641 51.652 28.2734 50.8427 29.2174 50.8427H51.2028C52.1468 50.8427 52.9561 51.652 52.9561 52.596C52.9561 53.5414 52.0121 54.3507 51.2028 54.3507Z" fill="#C4DAE8"/>
<path d="M51.2028 49.36H29.2174C28.2734 49.36 27.4641 48.5507 27.4641 47.6067C27.4641 46.6627 28.2734 45.8533 29.2174 45.8533H51.2028C52.1468 45.8533 52.9561 46.6627 52.9561 47.6067C52.9561 48.5507 52.0121 49.36 51.2028 49.36Z" fill="#C4DAE8"/>
<path d="M51.2028 44.2347H29.2174C28.2734 44.2347 27.4641 43.4254 27.4641 42.4801C27.4641 41.5361 28.2734 40.7267 29.2174 40.7267H51.2028C52.1468 40.7267 52.9561 41.5361 52.9561 42.4801C52.9561 43.4254 52.0121 44.2347 51.2028 44.2347Z" fill="#C4DAE8"/>
<path d="M51.2028 39.244H29.2174C28.2734 39.244 27.4641 38.4347 27.4641 37.4907C27.4641 36.5467 28.2734 35.7373 29.2174 35.7373H51.2028C52.1468 35.7373 52.9561 36.5467 52.9561 37.4907C52.8214 38.4347 52.0121 39.244 51.2028 39.244Z" fill="#C4DAE8"/>
<path d="M51.2028 34.1187H29.2174C28.2734 34.1187 27.4641 33.3094 27.4641 32.364C27.4641 31.42 28.2734 30.6107 29.2174 30.6107H51.2028C52.1468 30.6107 52.9561 31.42 52.9561 32.364C52.8214 33.444 52.0121 34.1187 51.2028 34.1187Z" fill="#C4DAE8"/>
<path d="M51.2028 29.1281H29.2174C28.2734 29.1281 27.4641 28.3187 27.4641 27.3747C27.4641 26.4307 28.2734 25.6214 29.2174 25.6214H51.2028C52.1468 25.6214 52.9561 26.4307 52.9561 27.3747C52.8214 28.3187 52.0121 29.1281 51.2028 29.1281Z" fill="#C4DAE8"/>
<path d="M51.2028 59.4747H29.2174C28.2734 59.4747 27.4641 58.6667 27.4641 57.7227C27.4641 56.7774 28.2734 55.9694 29.2174 55.9694H51.2028C52.1468 55.9694 52.9561 56.7774 52.9561 57.7227C52.9561 58.6667 52.0121 59.4747 51.2028 59.4747Z" fill="#C4DAE8"/>
<path d="M39.3334 64.4667H29.2174C28.2734 64.4667 27.4641 63.6574 27.4641 62.712C27.4641 61.768 28.2734 60.9587 29.2174 60.9587H39.3334C40.2774 60.9587 41.0868 61.768 41.0868 62.712C41.0868 63.792 40.2774 64.4667 39.3334 64.4667Z" fill="#C4DAE8"/>
<path d="M39.3334 69.5908H29.2174C28.2734 69.5908 27.4641 68.7814 27.4641 67.8374C27.4641 66.8934 28.2734 66.0841 29.2174 66.0841H39.3334C40.2774 66.0841 41.0868 66.8934 41.0868 67.8374C41.0868 68.7814 40.2774 69.5908 39.3334 69.5908Z" fill="#C4DAE8"/>
<path d="M8.98538 35.872C8.04138 35.872 7.23206 35.0627 7.23206 34.1187V24.0027C7.23206 23.0573 8.04138 22.2494 8.98538 22.2494C9.92938 22.2494 10.7387 23.0573 10.7387 24.0027V34.1187C10.7387 35.0627 9.92938 35.872 8.98538 35.872Z" fill="#607D8B"/>
<path d="M69.6814 50.9774C68.7374 50.9774 67.9268 50.168 67.9268 49.224V45.8533C67.9268 44.908 68.7374 44.1 69.6814 44.1C70.6254 44.1 71.4348 44.908 71.4348 45.8533V49.224C71.4348 50.304 70.6254 50.9774 69.6814 50.9774Z" fill="#607D8B"/>
</svg>
