<svg width="77" height="78" viewBox="0 0 77 78" fill="none" xmlns="http://www.w3.org/2000/svg">
<path d="M76.5559 27.8054C76.9612 16.6107 68.0599 8.11338 57.6733 8.11338C48.2319 8.11338 43.5119 12.8334 38.9252 22.2747C34.4746 13.372 29.8893 8.11338 20.0426 8.11338C9.65726 8.11338 1.15991 16.6107 1.15991 26.996C1.15991 35.088 4.53191 40.888 10.0612 46.5534C17.3452 53.972 27.8652 60.5814 38.7906 71.5054C49.7159 60.5814 60.2372 53.972 67.5199 46.5534C72.9159 41.1574 76.4212 35.4934 76.5559 27.8054Z" fill="#F14742"/>
<path d="M72.6453 58.4214C74.508 58.4214 76.0173 59.9321 76.0173 61.7947C76.0173 63.6561 74.508 65.1667 72.6453 65.1667C70.7827 65.1667 69.2733 63.6561 69.2733 61.7947C69.2733 59.9321 70.7827 58.4214 72.6453 58.4214Z" fill="#505967"/>
<path d="M56.5946 71.9106C58.0106 71.9106 59.1573 73.0573 59.1573 74.472C59.1573 75.888 58.0106 77.0347 56.5946 77.0347C55.18 77.0347 54.032 75.888 54.032 74.472C54.032 73.0573 55.18 71.9106 56.5946 71.9106Z" fill="#505967"/>
<path d="M4.39725 66.7853C5.81192 66.7853 6.95991 67.932 6.95991 69.348C6.95991 70.7626 5.81192 71.9106 4.39725 71.9106C2.98125 71.9106 1.83325 70.7626 1.83325 69.348C1.83325 67.932 2.98125 66.7853 4.39725 66.7853Z" fill="#505967"/>
<path d="M10.3319 46.5533C15.4572 40.2133 25.0332 39.808 30.6986 45.744L23.5493 52.892L21.6612 51.1387C20.7172 50.1947 19.0986 50.1947 18.0199 51.1387C17.0759 52.084 17.0759 53.7013 18.0199 54.7813C18.5586 55.32 22.8746 59.6373 23.4146 60.176C35.1493 48.4413 32.9906 50.5987 33.2612 50.3293C33.7999 51.8133 34.2053 53.432 34.2053 55.1853C34.2053 62.604 28.1359 68.6733 20.7172 68.6733C13.2986 68.6733 7.22925 62.604 7.22925 55.1853C7.22925 51.8133 8.44392 48.8467 10.3319 46.5533Z" fill="#505967"/>
<path d="M75.6119 4.87605C75.8826 5.14538 76.1519 5.55073 76.1519 6.08939C76.1519 6.49473 76.0173 7.03337 75.6119 7.30404C75.3426 7.57337 74.9386 7.84271 74.3986 7.84271C73.4546 7.84271 72.6453 7.03339 72.6453 6.08939C72.6453 5.68539 72.7799 5.14538 73.1852 4.87605C73.4546 4.60671 73.8599 4.33607 74.3986 4.33607C74.8039 4.47207 75.2079 4.60671 75.6119 4.87605Z" fill="#65B2FE"/>
<path d="M73.86 72.3147C74.1293 72.584 74.3986 72.9894 74.3986 73.5281C74.3986 73.9334 74.264 74.472 73.86 74.7427C73.5893 75.0134 73.1853 75.2827 72.6453 75.2827C71.7013 75.2827 70.892 74.4721 70.892 73.5281C70.892 73.1241 71.0266 72.584 71.432 72.3147C71.7013 72.0454 72.1067 71.776 72.6453 71.776C73.1853 71.9107 73.5893 72.0454 73.86 72.3147Z" fill="#65B2FE"/>
<path d="M60.3719 62.1987C60.6413 62.4694 60.9106 62.8734 60.9106 63.4134C60.9106 63.8174 60.7759 64.3574 60.3719 64.6267C60.1013 64.8974 59.6973 65.1667 59.1573 65.1667C58.2133 65.1667 57.4039 64.3574 57.4039 63.4134C57.4039 63.0081 57.5386 62.4694 57.9439 62.1987C58.2133 61.9294 58.6173 61.6601 59.1573 61.6601C59.6973 61.7947 60.1013 61.9294 60.3719 62.1987Z" fill="#65B2FE"/>
<path d="M48.6373 1.50401C48.9066 1.77335 49.176 2.17869 49.176 2.71736C49.176 3.25736 49.0413 3.66134 48.6373 3.93201C48.3666 4.20134 47.9626 4.47205 47.4226 4.47205C46.4786 4.47205 45.6693 3.66136 45.6693 2.71736C45.6693 2.31336 45.8053 1.77335 46.2093 1.50401C46.4787 1.23335 46.884 0.964038 47.4226 0.964038C47.9626 0.964038 48.232 1.23335 48.6373 1.50401Z" fill="#65B2FE"/>
<path d="M38.5212 6.62934C38.7906 6.89867 39.0599 7.30402 39.0599 7.84269C39.0599 8.24802 38.9252 8.78807 38.5212 9.0574C38.2506 9.32673 37.8466 9.59601 37.3066 9.59601C36.3626 9.59601 35.5546 8.78802 35.5546 7.84269C35.5546 7.43869 35.6892 6.89867 36.0932 6.62934C36.4986 6.36001 36.7679 6.08937 37.3066 6.08937C37.7119 6.08937 38.1159 6.36001 38.5212 6.62934Z" fill="#65B2FE"/>
<path d="M34.88 45.204C35.824 46.148 35.824 47.7667 34.88 48.8467L33.396 50.3294L27.056 56.5334L23.5493 60.0414L19.908 56.5334L18.1546 54.6454C17.6146 54.1067 17.48 53.5667 17.48 52.892C17.48 52.2187 17.7506 51.544 18.1546 51.1387C19.0986 50.1947 20.7173 50.1947 21.796 51.1387L23.5493 52.892L30.6986 45.744L31.372 45.0694C31.912 44.5294 32.452 44.3947 33.1266 44.3947C33.6653 44.3947 34.34 44.6654 34.88 45.204Z" fill="#E2F1FC"/>
<path d="M26.652 74.068C26.9213 74.3387 27.192 74.7426 27.192 75.2826C27.192 75.688 27.056 76.2267 26.652 76.496C26.248 76.7653 25.9773 77.0347 25.4386 77.0347C24.4946 77.0347 23.684 76.2266 23.684 75.2826C23.684 74.8773 23.82 74.3387 24.224 74.068C24.6293 73.7987 24.8986 73.528 25.4386 73.528C25.9773 73.528 26.3826 73.7987 26.652 74.068Z" fill="#65B2FE"/>
<path d="M4.80125 4.87605C5.07192 5.14538 5.34126 5.55073 5.34126 6.08939C5.34126 6.49473 5.20659 7.03337 4.80125 7.30404C4.53192 7.57337 4.12659 7.84271 3.58792 7.84271C2.64259 7.84271 1.83325 7.03339 1.83325 6.08939C1.83325 5.68539 1.96926 5.14538 2.37326 4.87605C2.64259 4.60671 3.04792 4.33607 3.58792 4.33607C3.99192 4.47207 4.39725 4.60671 4.80125 4.87605Z" fill="#65B2FE"/>
<path d="M3.04797 52.084C3.3173 52.3533 3.58797 52.7573 3.58797 53.2973C3.58797 53.8373 3.45197 54.2413 3.04797 54.5107C2.77863 54.7813 2.3733 55.0507 1.8333 55.0507C0.889301 55.0507 0.0812988 54.2413 0.0812988 53.2973C0.0812988 52.892 0.215971 52.3533 0.619971 52.084C1.0253 51.8133 1.29463 51.544 1.8333 51.544C2.3733 51.6787 2.77863 51.8133 3.04797 52.084Z" fill="#65B2FE"/>
<path d="M69.2733 24.7027C69.6786 24.7027 70.2172 24.568 70.4879 24.1627C70.7572 23.8934 71.0266 23.488 71.0266 22.9493C71.0266 22.4107 70.8919 22.0054 70.4879 21.736C70.2172 21.4667 69.8133 21.1947 69.2733 21.1947C68.8693 21.1947 68.3292 21.3307 68.0599 21.736C67.7892 22.0054 67.5199 22.4107 67.5199 22.9493C67.6546 23.8933 68.3293 24.7027 69.2733 24.7027Z" fill="#B53532"/>
<path d="M23.1453 12.8334C13.4333 12.8334 5.6106 20.6561 5.6106 30.3667C5.6106 31.3107 6.41993 32.1214 7.36393 32.1214C8.30793 32.1214 9.11727 31.3107 9.11727 30.3667C9.11727 22.5441 15.4573 16.2054 23.2799 16.2054C24.2239 16.2054 25.0333 15.3961 25.0333 14.5867C24.7639 13.6427 24.0893 12.8334 23.1453 12.8334Z" fill="#B53532"/>
<path d="M69.2733 26.7267C68.3293 26.7267 67.52 27.5347 67.52 28.4787C67.52 37.2467 61.316 42.2374 52.8186 49.1161C49.0413 52.2187 44.7253 55.7254 40.4093 59.9067C39.7347 60.5814 39.7347 61.6601 40.4093 62.3334C40.6787 62.6041 41.2186 62.8734 41.6226 62.8734C42.028 62.8734 42.4333 62.7387 42.8373 62.3334C47.0186 58.1521 51.2 54.7814 54.976 51.6787C63.8787 44.5294 70.892 38.8641 70.892 28.4787C71.0266 27.4001 70.2173 26.7267 69.2733 26.7267Z" fill="#B53532"/>
</svg>
