<svg width="75" height="74" viewBox="0 0 75 74" fill="none" xmlns="http://www.w3.org/2000/svg">
<path d="M54.9494 22.7027C54.0054 22.7027 53.1947 21.8933 53.1947 20.9493V15.9587C53.1947 15.0147 52.3866 14.2054 51.4426 14.2054H22.9827C22.0387 14.2054 21.2307 15.0147 21.2307 15.9587V20.9493C21.2307 21.8933 20.42 22.7027 19.476 22.7027C18.532 22.7027 17.7227 21.8933 17.7227 20.9493V15.9587C17.7227 13.1267 20.016 10.8334 22.8493 10.8334H51.4426C54.2746 10.8334 56.568 13.1267 56.568 15.9587V20.9493C56.7026 21.8933 55.8934 22.7027 54.9494 22.7027Z" fill="#352A29"/>
<path d="M74.372 27.2894V34.4374C74.372 34.4374 39.1693 34.4374 0.189331 34.4374V27.2894C0.189331 23.7814 3.02134 20.9494 6.528 20.9494C8.41734 20.9494 66.684 20.9494 68.032 20.9494C71.5387 20.9494 74.372 23.7814 74.372 27.2894Z" fill="#60534A"/>
<path d="M74.372 66.9427C74.372 70.4507 71.5387 73.2827 68.032 73.2827H6.528C3.02134 73.2827 0.189331 70.4507 0.189331 66.9427C0.189331 66.268 0.189331 35.5161 0.189331 34.4374C0.189331 34.4374 35.392 34.4374 74.372 34.4374C74.372 38.2134 74.372 63.572 74.372 66.9427Z" fill="#73665C"/>
<path d="M5.31333 7.46137C7.176 7.46137 8.68664 8.97205 8.68664 10.8334C8.68664 12.6947 7.176 14.2054 5.31333 14.2054C3.452 14.2054 1.94263 12.6947 1.94263 10.8334C1.94263 8.97205 3.452 7.46137 5.31333 7.46137Z" fill="#505967"/>
<path d="M66.8187 4.08934C68.2347 4.08934 69.3813 5.23736 69.3813 6.65203C69.3813 8.06803 68.2347 9.21466 66.8187 9.21466C65.404 9.21466 64.256 8.06803 64.256 6.65203C64.256 5.23736 65.404 4.08934 66.8187 4.08934Z" fill="#505967"/>
<path d="M66.0093 34.4374V41.1813C66.0093 43.0693 64.5267 44.5533 62.6387 44.5533C60.7494 44.5533 59.2654 43.0693 59.2654 41.1813V34.4374V32.684C59.2654 30.796 60.7494 29.3107 62.6387 29.3107C63.5827 29.3107 64.3907 29.716 65.0654 30.256C65.74 30.796 66.0093 31.74 66.0093 32.684V34.4374Z" fill="#352A29"/>
<path d="M15.4294 34.4374V41.1813C15.4294 43.0693 13.9467 44.5533 12.0587 44.5533C10.1693 44.5533 8.68665 43.0693 8.68665 41.1813V34.4374V32.684C8.68665 30.796 10.1693 29.3107 12.0587 29.3107C13.0027 29.3107 13.8107 29.716 14.4853 30.256C15.16 30.796 15.4294 31.74 15.4294 32.684V34.4374Z" fill="#352A29"/>
<path d="M45.7773 52.2414V57.2321H39.8426V63.1667H34.7172V57.2321H28.9172V52.2414H34.7172V46.3068H39.8426V52.2414H45.7773Z" fill="#65B2FE"/>
<path d="M66.0093 14.2054C66.9773 14.2054 67.7627 14.9907 67.7627 15.9587C67.7627 16.9267 66.9773 17.712 66.0093 17.712C65.0413 17.712 64.256 16.9267 64.256 15.9587C64.256 14.9907 65.0413 14.2054 66.0093 14.2054Z" fill="#EF727A"/>
<path d="M59.2653 58.0413C60.2347 58.0413 61.02 58.8253 61.02 59.7947C61.02 60.7627 60.2347 61.548 59.2653 61.548C58.2973 61.548 57.512 60.7627 57.512 59.7947C57.512 58.8253 58.2973 58.0413 59.2653 58.0413Z" fill="#352A29"/>
<path d="M45.7773 0.717355C46.7466 0.717355 47.5306 1.50271 47.5306 2.47204C47.5306 3.44004 46.7466 4.22406 45.7773 4.22406C44.8093 4.22406 44.0253 3.44004 44.0253 2.47204C44.0253 1.50271 44.8093 0.717355 45.7773 0.717355Z" fill="#EF727A"/>
<path d="M28.9173 0.717355C29.8866 0.717355 30.6719 1.50271 30.6719 2.47204C30.6719 3.44004 29.8866 4.22406 28.9173 4.22406C27.9493 4.22406 27.1639 3.44004 27.1639 2.47204C27.1639 1.50271 27.9493 0.717355 28.9173 0.717355Z" fill="#EF727A"/>
<path d="M22.1746 63.0307C23.1413 63.0307 23.9266 63.816 23.9266 64.7853C23.9266 65.7533 23.1413 66.5374 22.1746 66.5374C21.2053 66.5374 20.4199 65.7533 20.4199 64.7853C20.4199 63.816 21.2053 63.0307 22.1746 63.0307Z" fill="#352A29"/>
<path d="M13.6773 0.717355C14.644 0.717355 15.4293 1.50271 15.4293 2.47204C15.4293 3.44004 14.644 4.22406 13.6773 4.22406C12.708 4.22406 11.9226 3.44004 11.9226 2.47204C11.9226 1.50271 12.708 0.717355 13.6773 0.717355Z" fill="#EF727A"/>
<path d="M44.0254 41.1813H30.536C29.592 41.1813 28.7827 40.372 28.7827 39.4267C28.7827 38.4827 29.592 37.6747 30.536 37.6747H44.0254C44.9694 37.6747 45.7774 38.4827 45.7774 39.4267C45.7774 40.372 44.9694 41.1813 44.0254 41.1813Z" fill="#352A29"/>
<path d="M17.048 66.5374H11.9226C10.9786 66.5374 10.1693 65.7293 10.1693 64.7853C10.1693 63.8413 10.9786 63.0307 11.9226 63.0307H17.048C17.992 63.0307 18.8026 63.8413 18.8026 64.7853C18.8026 65.7293 17.992 66.5374 17.048 66.5374Z" fill="#352A29"/>
<path d="M13.6774 58.0414H0.189331V61.4133H13.6774C14.6214 61.4133 15.4294 60.604 15.4294 59.66C15.4294 58.8507 14.6214 58.0414 13.6774 58.0414Z" fill="#352A29"/>
<path d="M74.372 53.0507H69.2467C68.3027 53.0507 67.4933 53.8601 67.4933 54.8041C67.4933 55.7494 68.3027 56.5574 69.2467 56.5574H74.372V53.0507Z" fill="#352A29"/>
<path d="M74.372 58.0413H64.256C63.312 58.0413 62.5027 58.8507 62.5027 59.7947C62.5027 60.7387 63.312 61.548 64.256 61.548H74.372V58.0413Z" fill="#352A29"/>
</svg>
