<svg width="79" height="74" viewBox="0 0 79 74" fill="none" xmlns="http://www.w3.org/2000/svg">
<path d="M14.1108 66.4854C15.9734 66.4854 17.4828 67.9947 17.4828 69.8574C17.4828 71.72 15.9734 73.2294 14.1108 73.2294C12.2494 73.2294 10.7388 71.72 10.7388 69.8574C10.7388 67.9947 12.2494 66.4854 14.1108 66.4854Z" fill="#505967"/>
<path d="M67.1187 68.104C68.5334 68.104 69.6814 69.2507 69.6814 70.6667C69.6814 72.0827 68.5334 73.2294 67.1187 73.2294C65.7027 73.2294 64.556 72.0827 64.556 70.6667C64.556 69.2507 65.7027 68.104 67.1187 68.104Z" fill="#505967"/>
<path d="M63.7468 0.800048C66.0561 0.800048 67.9268 2.67203 67.9268 4.98003C67.9268 7.2907 66.0561 9.16138 63.7468 9.16138C61.4374 9.16138 59.5654 7.2907 59.5654 4.98003C59.5654 2.67203 61.4374 0.800048 63.7468 0.800048Z" fill="#505967"/>
<path d="M52.8214 47.872V41.128H66.3081C71.8388 41.128 76.4241 45.7133 76.4241 51.244C76.4241 54.0773 75.3467 56.504 73.4574 58.3933C71.5694 60.2813 69.1414 61.36 66.3081 61.36H52.8214V47.872Z" fill="#FEDE94"/>
<path d="M24.2267 54.616V61.36H10.7387C5.20936 61.36 0.622681 56.7733 0.622681 51.244C0.622681 48.412 1.70268 45.984 3.59068 44.0947C5.47868 42.2067 7.9067 41.128 10.7387 41.128H24.2267V54.616Z" fill="#FEDE94"/>
<path d="M52.8213 47.872V61.36H24.2267V41.128H52.8213V47.872Z" fill="#E09F73"/>
<path d="M52.8213 14.152V34.384H24.2267V14.152H52.8213Z" fill="#E09F73"/>
<path d="M66.3081 14.152C71.8388 14.152 76.4241 18.7387 76.4241 24.2681C76.4241 27.1001 75.3467 29.528 73.4574 31.4174C71.5694 33.3054 69.1414 34.384 66.3081 34.384H52.8214V14.152H66.3081Z" fill="#FEDE94"/>
<path d="M24.2267 14.152V34.384H10.7387C5.20936 34.384 0.622681 29.7987 0.622681 24.2681C0.622681 21.4361 1.70268 19.008 3.59068 17.12C5.47868 15.232 7.9067 14.152 10.7387 14.152H24.2267Z" fill="#FEDE94"/>
<path d="M76.4241 64.7321C77.3934 64.7321 78.1788 65.5174 78.1788 66.4854C78.1788 67.4548 77.3934 68.2388 76.4241 68.2388C75.4574 68.2388 74.6721 67.4548 74.6721 66.4854C74.6721 65.5174 75.4574 64.7321 76.4241 64.7321Z" fill="#3F51B4"/>
<path d="M66.308 46.1187C67.2774 46.1187 68.0627 46.904 68.0627 47.872C68.0627 48.8414 67.2774 49.6254 66.308 49.6254C65.3414 49.6254 64.556 48.8414 64.556 47.872C64.556 46.904 65.3414 46.1187 66.308 46.1187Z" fill="#BFA76F"/>
<path d="M57.9467 68.1041C58.916 68.1041 59.7 68.8894 59.7 69.8574C59.7 70.8254 58.916 71.6107 57.9467 71.6107C56.9774 71.6107 56.1934 70.8254 56.1934 69.8574C56.1934 68.8894 56.9774 68.1041 57.9467 68.1041Z" fill="#3F51B4"/>
<path d="M51.2028 4.03608C52.1708 4.03608 52.9561 4.82141 52.9561 5.79074C52.9561 6.75741 52.1708 7.54272 51.2028 7.54272C50.2348 7.54272 49.4495 6.75741 49.4495 5.79074C49.4495 4.82141 50.2348 4.03608 51.2028 4.03608Z" fill="#3F51B4"/>
<path d="M46.0773 17.5254C47.0453 17.5254 47.8306 18.3094 47.8306 19.2774C47.8306 20.2467 47.0453 21.0308 46.0773 21.0308C45.1093 21.0308 44.324 20.2467 44.324 19.2774C44.324 18.3094 45.1093 17.5254 46.0773 17.5254Z" fill="#C6613E"/>
<path d="M46.0773 22.5147C47.0453 22.5147 47.8306 23.3001 47.8306 24.2681C47.8306 25.2374 47.0453 26.0227 46.0773 26.0227C45.1093 26.0227 44.324 25.2374 44.324 24.2681C44.324 23.3001 45.1093 22.5147 46.0773 22.5147Z" fill="#C6613E"/>
<path d="M46.0773 27.6401C47.0453 27.6401 47.8306 28.4254 47.8306 29.3934C47.8306 30.3614 47.0453 31.1467 46.0773 31.1467C45.1093 31.1467 44.324 30.3614 44.324 29.3934C44.324 28.4254 45.1093 27.6401 46.0773 27.6401Z" fill="#C6613E"/>
<path d="M41.0867 17.5254C42.056 17.5254 42.84 18.3094 42.84 19.2774C42.84 20.2467 42.056 21.0308 41.0867 21.0308C40.1187 21.0308 39.3334 20.2467 39.3334 19.2774C39.3334 18.3094 40.1187 17.5254 41.0867 17.5254Z" fill="#C6613E"/>
<path d="M41.0867 22.5147C42.056 22.5147 42.84 23.3001 42.84 24.2681C42.84 25.2374 42.056 26.0227 41.0867 26.0227C40.1187 26.0227 39.3334 25.2374 39.3334 24.2681C39.3334 23.3001 40.1187 22.5147 41.0867 22.5147Z" fill="#C6613E"/>
<path d="M41.0867 27.6401C42.056 27.6401 42.84 28.4254 42.84 29.3934C42.84 30.3614 42.056 31.1467 41.0867 31.1467C40.1187 31.1467 39.3334 30.3614 39.3334 29.3934C39.3334 28.4254 40.1187 27.6401 41.0867 27.6401Z" fill="#C6613E"/>
<path d="M37.7148 64.7321C38.6828 64.7321 39.4681 65.5174 39.4681 66.4854C39.4681 67.4548 38.6828 68.2388 37.7148 68.2388C36.7468 68.2388 35.9614 67.4548 35.9614 66.4854C35.9614 65.5174 36.7468 64.7321 37.7148 64.7321Z" fill="#3F51B4"/>
<path d="M35.9613 17.5254C36.9293 17.5254 37.7147 18.3094 37.7147 19.2774C37.7147 20.2467 36.9293 21.0308 35.9613 21.0308C34.9933 21.0308 34.208 20.2467 34.208 19.2774C34.208 18.3094 34.9933 17.5254 35.9613 17.5254Z" fill="#C6613E"/>
<path d="M35.9613 22.5147C36.9293 22.5147 37.7147 23.3001 37.7147 24.2681C37.7147 25.2374 36.9293 26.0227 35.9613 26.0227C34.9933 26.0227 34.208 25.2374 34.208 24.2681C34.208 23.3001 34.9933 22.5147 35.9613 22.5147Z" fill="#C6613E"/>
<path d="M35.9613 27.6401C36.9293 27.6401 37.7147 28.4254 37.7147 29.3934C37.7147 30.3614 36.9293 31.1467 35.9613 31.1467C34.9933 31.1467 34.208 30.3614 34.208 29.3934C34.208 28.4254 34.9933 27.6401 35.9613 27.6401Z" fill="#C6613E"/>
<path d="M30.9708 17.5254C31.9401 17.5254 32.7241 18.3094 32.7241 19.2774C32.7241 20.2467 31.9401 21.0308 30.9708 21.0308C30.0028 21.0308 29.2174 20.2467 29.2174 19.2774C29.2174 18.3094 30.0028 17.5254 30.9708 17.5254Z" fill="#C6613E"/>
<path d="M30.9708 22.5147C31.9401 22.5147 32.7241 23.3001 32.7241 24.2681C32.7241 25.2374 31.9401 26.0227 30.9708 26.0227C30.0028 26.0227 29.2174 25.2374 29.2174 24.2681C29.2174 23.3001 30.0028 22.5147 30.9708 22.5147Z" fill="#C6613E"/>
<path d="M30.9708 27.6401C31.9401 27.6401 32.7241 28.4254 32.7241 29.3934C32.7241 30.3614 31.9401 31.1467 30.9708 31.1467C30.0028 31.1467 29.2174 30.3614 29.2174 29.3934C29.2174 28.4254 30.0028 27.6401 30.9708 27.6401Z" fill="#C6613E"/>
<path d="M27.5988 0.663989C28.5668 0.663989 29.3521 1.44931 29.3521 2.41731C29.3521 3.38664 28.5668 4.172 27.5988 4.172C26.6308 4.172 25.8455 3.38664 25.8455 2.41731C25.8455 1.44931 26.6308 0.663989 27.5988 0.663989Z" fill="#3F51B4"/>
<path d="M27.5988 69.7227C28.5668 69.7227 29.3521 70.508 29.3521 71.4747C29.3521 72.444 28.5668 73.2294 27.5988 73.2294C26.6308 73.2294 25.8455 72.444 25.8455 71.4747C25.8455 70.508 26.6308 69.7227 27.5988 69.7227Z" fill="#3F51B4"/>
<path d="M12.3573 5.6547C13.3267 5.6547 14.1107 6.44003 14.1107 7.40936C14.1107 8.37603 13.3267 9.16138 12.3573 9.16138C11.3893 9.16138 10.604 8.37603 10.604 7.40936C10.604 6.44003 11.3893 5.6547 12.3573 5.6547Z" fill="#3F51B4"/>
<path d="M12.3573 52.8614C13.3267 52.8614 14.1107 53.6467 14.1107 54.616C14.1107 55.584 13.3267 56.3694 12.3573 56.3694C11.3893 56.3694 10.604 55.584 10.604 54.616C10.604 53.6467 11.3893 52.8614 12.3573 52.8614Z" fill="#BFA76F"/>
<path d="M2.24139 62.9773C3.21072 62.9773 3.99604 63.7627 3.99604 64.732C3.99604 65.7 3.21072 66.4854 2.24139 66.4854C1.27339 66.4854 0.488037 65.7 0.488037 64.732C0.488037 63.7627 1.27339 62.9773 2.24139 62.9773Z" fill="#3F51B4"/>
<path d="M61.3187 46.2533H52.8214V49.76H61.3187C62.2627 49.76 63.0721 48.952 63.0721 48.0067C63.0721 47.0627 62.1281 46.2533 61.3187 46.2533Z" fill="#BFA76F"/>
<path d="M24.2267 54.616V52.8614H17.4827C16.5387 52.8614 15.7294 53.672 15.7294 54.616C15.7294 55.56 16.5387 56.3694 17.4827 56.3694H24.2267V54.616Z" fill="#BFA76F"/>
</svg>
