<svg width="75" height="74" viewBox="0 0 75 74" fill="none" xmlns="http://www.w3.org/2000/svg">
<path d="M18.8546 32.9826C18.8546 33.9266 18.0453 34.7359 17.1013 34.7359H13.7292V38.1079C13.7292 38.1079 60.8026 38.1079 60.9373 38.1079V33.7919C60.9373 26.2386 55.9466 19.8999 49.0679 17.8759C48.9319 18.5506 48.2586 19.2252 47.4493 19.2252H37.3333C36.3893 19.2252 35.5799 18.4159 35.5799 17.4719C35.5799 16.5279 36.3893 15.7186 37.3333 15.7186H47.4493V10.3226H27.2172V17.3359C20.3386 18.6852 14.9439 24.2146 13.8639 31.2292H17.1013C18.0453 31.3639 18.8546 32.0373 18.8546 32.9826Z" fill="#E2F1FC"/>
<path d="M6.98525 9.37856C8.84792 9.37856 10.3573 10.8879 10.3573 12.7506C10.3573 14.6132 8.84792 16.1226 6.98525 16.1226C5.12259 16.1226 3.61328 14.6132 3.61328 12.7506C3.61328 10.8879 5.12259 9.37856 6.98525 9.37856Z" fill="#3E3E3E"/>
<path d="M2.80533 58.34C4.22 58.34 5.36666 59.4867 5.36666 60.9027C5.36666 62.3173 4.22 63.4653 2.80533 63.4653C1.38933 63.4653 0.241333 62.3173 0.241333 60.9027C0.241333 59.4867 1.38933 58.34 2.80533 58.34Z" fill="#3E3E3E"/>
<path d="M70.2441 59.9587C71.6587 59.9587 72.8054 61.1053 72.8054 62.5213C72.8054 63.936 71.6587 65.084 70.2441 65.084C68.8281 65.084 67.6814 63.936 67.6814 62.5213C67.6814 61.1053 68.8281 59.9587 70.2441 59.9587Z" fill="#3E3E3E"/>
<path d="M70.244 2.76929C72.5533 2.76929 74.424 4.64128 74.424 6.95062C74.424 9.25995 72.5533 11.1333 70.244 11.1333C67.9346 11.1333 66.0626 9.25995 66.0626 6.95062C66.0626 4.64128 67.9346 2.76929 70.244 2.76929Z" fill="#3E3E3E"/>
<path d="M49.7427 0.342619C51.2253 0.342619 52.44 1.55595 52.44 3.03862V7.75995C52.44 9.24395 51.2253 10.4586 49.7427 10.4586C46.5053 10.4586 28.5667 10.4586 25.0587 10.4586C23.576 10.4586 22.3613 9.24395 22.3613 7.75995V3.03862C22.3613 1.55595 23.576 0.342619 25.0587 0.342619C27.6227 0.342619 47.3133 0.342619 49.7427 0.342619Z" fill="#505967"/>
<path d="M49.7427 0.342619C51.2253 0.342619 52.44 1.55595 52.44 3.03862V7.75995C52.44 9.24395 51.2253 10.4586 49.7427 10.4586C46.5053 10.4586 28.5667 10.4586 25.0587 10.4586C23.576 10.4586 22.3613 9.24395 22.3613 7.75995V3.03862C22.3613 1.55595 23.576 0.342619 25.0587 0.342619C27.6227 0.342619 47.3133 0.342619 49.7427 0.342619Z" fill="#505967"/>
<path d="M60.9373 65.084V66.7013C60.9373 70.4786 57.8346 73.5813 54.0586 73.5813H20.6079C16.8319 73.5813 13.7292 70.4786 13.7292 66.7013V65.084H60.9373Z" fill="#C4DAE8"/>
<path d="M13.7292 49.8427H60.9373C60.9373 51.4613 60.9373 63.06 60.9373 65.084H13.7292V59.284C13.7292 58.4733 13.7292 50.7867 13.7292 49.8427Z" fill="#E2F1FC"/>
<path d="M13.7292 38.108H28.0266C26.9479 39.8613 26.2733 41.884 26.2733 44.0426C26.2733 46.2 26.9479 48.224 28.0266 49.976H13.7292V38.108Z" fill="#469BE0"/>
<path d="M60.9374 46.6053V49.8427H46.5054C47.584 48.088 48.2587 46.0653 48.2587 43.908C48.2587 41.7507 47.584 39.7266 46.5054 37.972H60.9374V46.6053Z" fill="#469BE0"/>
<path d="M48.932 44.0427C48.932 50.5174 43.6733 55.6414 37.3333 55.6414C33.152 55.6414 29.6453 53.484 27.4866 50.248C25.0586 46.4707 25.0586 41.4787 27.4866 37.7027C29.5106 34.4667 33.152 32.308 37.3333 32.308C43.8067 32.308 48.932 37.568 48.932 44.0427Z" fill="#65B2FE"/>
<path d="M72.8052 24.4853C73.7746 24.4853 74.5599 25.2706 74.5599 26.2386C74.5599 27.2066 73.7746 27.9919 72.8052 27.9919C71.8386 27.9919 71.0532 27.2066 71.0532 26.2386C71.0532 25.2706 71.8386 24.4853 72.8052 24.4853Z" fill="#E3835A"/>
<path d="M66.0626 46.4706C67.0306 46.4706 67.816 47.2546 67.816 48.224C67.816 49.1933 67.0306 49.976 66.0626 49.976C65.0933 49.976 64.308 49.1933 64.308 48.224C64.308 47.2546 65.0933 46.4706 66.0626 46.4706Z" fill="#E3835A"/>
<path d="M62.6906 14.3693C63.6586 14.3693 64.4439 15.1533 64.4439 16.1226C64.4439 17.0906 63.6586 17.876 62.6906 17.876C61.7226 17.876 60.9373 17.0906 60.9373 16.1226C60.9373 15.1533 61.7226 14.3693 62.6906 14.3693Z" fill="#E3835A"/>
<path d="M59.3186 4.25334C60.2866 4.25334 61.072 5.03734 61.072 6.00667C61.072 6.97467 60.2866 7.76001 59.3186 7.76001C58.3506 7.76001 57.5653 6.97467 57.5653 6.00667C57.5653 5.03734 58.3506 4.25334 59.3186 4.25334Z" fill="#E3835A"/>
<path d="M50.8213 58.2039C51.7893 58.2039 52.5747 58.9892 52.5747 59.9586C52.5747 60.9266 51.7893 61.7119 50.8213 61.7119C49.8533 61.7119 49.068 60.9266 49.068 59.9586C49.068 58.9892 49.8533 58.2039 50.8213 58.2039Z" fill="#C4DAE8"/>
<path d="M15.4826 0.881283C16.4506 0.881283 17.2359 1.6666 17.2359 2.63594C17.2359 3.6026 16.4506 4.38794 15.4826 4.38794C14.5146 4.38794 13.7292 3.6026 13.7292 2.63594C13.7292 1.6666 14.5146 0.881283 15.4826 0.881283Z" fill="#E3835A"/>
<path d="M8.7387 31.2293C9.70804 31.2293 10.492 32.0146 10.492 32.9826C10.492 33.9506 9.70804 34.736 8.7387 34.736C7.7707 34.736 6.98535 33.9506 6.98535 32.9826C6.98535 32.0146 7.7707 31.2293 8.7387 31.2293Z" fill="#E3835A"/>
<path d="M6.98525 68.3199C7.95325 68.3199 8.73861 69.1052 8.73861 70.0745C8.73861 71.0425 7.95325 71.8279 6.98525 71.8279C6.01725 71.8279 5.23193 71.0425 5.23193 70.0745C5.23193 69.1052 6.01725 68.3199 6.98525 68.3199Z" fill="#E3835A"/>
<path d="M1.99599 24.4853C2.96399 24.4853 3.74934 25.2706 3.74934 26.2386C3.74934 27.2066 2.96399 27.9919 1.99599 27.9919C1.02665 27.9919 0.241333 27.2066 0.241333 26.2386C0.241333 25.2706 1.02665 24.4853 1.99599 24.4853Z" fill="#E3835A"/>
<path d="M1.99599 44.7172C2.96399 44.7172 3.74934 45.5025 3.74934 46.4705C3.74934 47.4385 2.96399 48.2239 1.99599 48.2239C1.02665 48.2239 0.241333 47.4385 0.241333 46.4705C0.241333 45.5025 1.02665 44.7172 1.99599 44.7172Z" fill="#E3835A"/>
<path d="M42.5933 42.1534H39.0866V38.6467C39.0866 37.7027 38.2773 36.8947 37.3333 36.8947C36.3893 36.8947 35.58 37.7027 35.58 38.6467V42.1534H32.0733C31.1293 42.1534 30.3199 42.9641 30.3199 43.9081C30.3199 44.8521 31.1293 45.6614 32.0733 45.6614H35.58V49.1681C35.58 50.1121 36.3893 50.9214 37.3333 50.9214C38.2773 50.9214 39.0866 50.1121 39.0866 49.1681V45.6614H42.5933C43.5373 45.6614 44.348 44.8521 44.348 43.9081C44.348 42.9641 43.6733 42.1534 42.5933 42.1534Z" fill="white"/>
<path d="M66.0626 44.8521C65.1186 44.8521 64.308 44.0427 64.308 43.0987V32.9827C64.308 32.0374 65.1186 31.2294 66.0626 31.2294C67.0066 31.2294 67.816 32.0374 67.816 32.9827V43.0987C67.6813 44.0427 66.8706 44.8521 66.0626 44.8521Z" fill="#E3835A"/>
<path d="M71.0534 53.2134C70.1094 53.2134 69.3 52.4054 69.3 51.4614V44.7174C69.3 43.7734 70.1094 42.964 71.0534 42.964C71.9974 42.964 72.8054 43.7734 72.8054 44.7174V51.4614C72.8054 52.54 71.9974 53.2134 71.0534 53.2134Z" fill="#E3835A"/>
<path d="M8.7387 46.4707C7.7947 46.4707 6.98535 45.6614 6.98535 44.7174V37.972C6.98535 37.028 7.7947 36.22 8.7387 36.22C9.6827 36.22 10.492 37.028 10.492 37.972V44.7174C10.3574 45.796 9.54804 46.4707 8.7387 46.4707Z" fill="#E3835A"/>
<path d="M48.6627 34.3306C48.2587 34.3306 47.8547 34.1959 47.4494 33.7919C41.9187 28.2612 32.748 28.2612 27.2173 33.7919C26.5427 34.4666 25.464 34.4666 24.7893 33.7919C24.1147 33.1172 24.1147 32.0372 24.7893 31.3639C31.668 24.4852 42.8627 24.4852 49.8773 31.3639C50.552 32.0372 50.552 33.1172 49.8773 33.7919C49.472 34.1959 49.068 34.3306 48.6627 34.3306Z" fill="#C4DAE8"/>
<path d="M37.3333 61.7119C32.612 61.7119 28.1613 59.8226 24.7893 56.5852C24.1147 55.9119 24.1147 54.8332 24.7893 54.1586C25.464 53.4839 26.5427 53.4839 27.2173 54.1586C29.916 56.8559 33.556 58.3399 37.3333 58.3399C41.1107 58.3399 44.7507 56.8559 47.4494 54.1586C48.124 53.4839 49.2027 53.4839 49.8773 54.1586C50.552 54.8332 50.552 55.9119 49.8773 56.5852C46.5053 59.8226 42.0547 61.7119 37.3333 61.7119Z" fill="#C4DAE8"/>
<path d="M47.4493 17.472V15.7186H37.3333C36.3893 15.7186 35.5799 16.528 35.5799 17.472C35.5799 18.416 36.3893 19.2253 37.3333 19.2253H47.4493C48.2586 19.2253 48.9319 18.6853 49.0679 17.876C48.5279 17.7413 47.9879 17.6066 47.4493 17.472ZM18.8546 32.9826C18.8546 33.9266 18.0453 34.736 17.1013 34.736H13.7292V32.9826V32.308C13.7292 31.904 13.8639 31.6346 13.8639 31.2293H17.1013C18.0453 31.364 18.8546 32.0373 18.8546 32.9826Z" fill="#C4DAE8"/>
<path d="M25.7333 4.38802C25.7333 5.33202 26.5426 6.14136 27.4866 6.14136C28.4306 6.14136 29.2413 5.33202 29.2413 4.38802V0.342692H25.8679V4.38802H25.7333Z" fill="#3C434D"/>
<path d="M30.86 4.38802C30.86 5.33202 31.668 6.14136 32.612 6.14136C33.556 6.14136 34.3653 5.33202 34.3653 4.38802V0.342692H30.9947V4.38802H30.86Z" fill="#3C434D"/>
<path d="M45.9667 4.38802C45.9667 5.33202 46.7747 6.14136 47.7187 6.14136C48.6627 6.14136 49.472 5.33202 49.472 4.38802V0.342692H46.1V4.38802H45.9667Z" fill="#3C434D"/>
<path d="M35.8494 4.38802C35.8494 5.33202 36.6587 6.14136 37.6027 6.14136C38.5467 6.14136 39.3573 5.33202 39.3573 4.38802V0.342692H35.984V4.38802H35.8494Z" fill="#3C434D"/>
<path d="M40.9746 4.38802C40.9746 5.33202 41.7839 6.14136 42.7293 6.14136C43.6733 6.14136 44.4813 5.33202 44.4813 4.38802V0.342692H41.1106V4.38802H40.9746Z" fill="#3C434D"/>
<path d="M17.1013 53.2132H13.7292V56.5852H17.1013C18.0453 56.5852 18.8546 55.7772 18.8546 54.8332C18.8546 54.0239 18.0453 53.2132 17.1013 53.2132Z" fill="#C4DAE8"/>
<path d="M60.9373 58.34H55.8106C54.8666 58.34 54.0586 59.148 54.0586 60.0933C54.0586 61.0373 54.8666 61.8467 55.8106 61.8467H60.9373V58.34Z" fill="#C4DAE8"/>
</svg>
