<svg xmlns="http://www.w3.org/2000/svg" width="24" height="18" viewBox="0 0 24 18" fill="none">
  <path d="M22.9565 7.95715H1.04346C0.467168 7.95715 0 8.42432 0 9.00061C0 9.57691 0.467168 10.0441 1.04346 10.0441H22.9565C23.5328 10.0441 24 9.57691 24 9.00061C24 8.42432 23.5328 7.95715 22.9565 7.95715Z" fill="#fff"/>
  <path d="M1.04346 2.73933H22.9565C23.5328 2.73933 24 2.27216 24 1.69587C24 1.11957 23.5328 0.652405 22.9565 0.652405H1.04346C0.467168 0.652405 0 1.11957 0 1.69587C0 2.27216 0.467168 2.73933 1.04346 2.73933Z" fill="#fff"/>
  <path d="M22.9565 15.261H1.04346C0.467168 15.261 0 15.7282 0 16.3045C0 16.8808 0.467168 17.348 1.04346 17.348H22.9565C23.5328 17.348 24 16.8808 24 16.3045C24 15.7282 23.5328 15.261 22.9565 15.261Z" fill="#fff"/>
</svg>